<?xml version="1.0" encoding="UTF-8" standalone="no"?>
<!-- Created with Inkscape (http://www.inkscape.org/) -->

<svg
   id="svg2"
   sodipodi:docname="bus-stop.svg"
   inkscape:export-filename="/home/milo/Desktop/funny_stop.png"
   viewBox="0 0 37.965656 61.187105"
   sodipodi:version="0.32"
   inkscape:export-xdpi="90"
   version="1.0"
   inkscape:output_extension="org.inkscape.output.svg.inkscape"
   inkscape:export-ydpi="90"
   inkscape:version="1.2.1 (1:1.2.1+202210291244+9c6d41e410)"
   width="37.965656"
   height="61.187103"
   xmlns:inkscape="http://www.inkscape.org/namespaces/inkscape"
   xmlns:sodipodi="http://sodipodi.sourceforge.net/DTD/sodipodi-0.dtd"
   xmlns="http://www.w3.org/2000/svg"
   xmlns:svg="http://www.w3.org/2000/svg"
   xmlns:rdf="http://www.w3.org/1999/02/22-rdf-syntax-ns#"
   xmlns:cc="http://creativecommons.org/ns#"
   xmlns:dc="http://purl.org/dc/elements/1.1/">
  <defs
     id="defs4">
    <filter
       id="filter3314"
       height="1.1604423"
       width="1.3694808"
       y="-0.080221126"
       x="-0.18474038"
       inkscape:collect="always">
      <feGaussianBlur
         id="feGaussianBlur3316"
         stdDeviation="0.98787905"
         inkscape:collect="always" />
    </filter>
  </defs>
  <sodipodi:namedview
     id="base"
     bordercolor="#666666"
     inkscape:pageshadow="2"
     guidetolerance="10"
     pagecolor="#ffffff"
     gridtolerance="10000"
     inkscape:window-height="1014"
     inkscape:zoom="5.08233"
     objecttolerance="10"
     showgrid="false"
     borderopacity="1.0"
     inkscape:current-layer="layer1"
     inkscape:cx="-2.2627417"
     inkscape:cy="53.42038"
     inkscape:window-y="0"
     inkscape:window-x="0"
     inkscape:window-width="1920"
     inkscape:pageopacity="0.0"
     inkscape:document-units="px"
     inkscape:showpageshadow="0"
     inkscape:pagecheckerboard="1"
     inkscape:deskcolor="#d1d1d1"
     inkscape:window-maximized="1" />
  <g
     id="layer1"
     inkscape:label="Layer 1"
     inkscape:groupmode="layer"
     transform="translate(-3.9335497,14.441968)">
    <g
       id="g191">
      <path
         id="path3241"
         style="fill:#a29b94;filter:url(#filter3314)"
         transform="matrix(0.5040854,1.2187028,-0.75174079,0.81721291,44.242704,8.1339326)"
         d="M -7.5625,8.5625 C -8.0263,8.6627 -8.4063,9.0342 -8.5,9.5312 l -2.156,10.531 c 0.259,0.267 1.962,0.677 3.9998,1.063 -1.9919,5.806 -4.1988,12.379 -2.8438,16.906 0.6521,0.172 1.9216,-0.004 2.0938,-0.656 -1.1673,-6.098 1.0041,-10.95 3,-15.844 2.0139,0.322 4.0247,0.571 5.0937,0.594 l 1.4687,-9.719 c 0.1249,-0.663 -0.3059,-1.281 -0.9687,-1.406 l -8.25,-2.4375 c -0.1657,-0.0312 -0.3454,-0.0334 -0.5,0 z" />
      <g
         id="g131"
         transform="matrix(2,0,0,2,-17.784459,-16.112602)">
        <path
           id="rect2447"
           sodipodi:nodetypes="cccccc"
           style="fill:#a29b94;stroke:#000000;stroke-linecap:round;stroke-linejoin:round"
           d="m 18.856,6.8112 c 0.652,0.1722 1.039,0.8357 0.867,1.4878 -1.836,7.236 -6.73,13.309 -5.091,21.867 -0.172,0.652 -1.462,0.83 -2.114,0.658 -1.88,-6.283 3.128,-16.488 4.85,-23.146 0.172,-0.6525 0.836,-1.0389 1.488,-0.8668 z" />
        <path
           id="rect3224"
           sodipodi:nodetypes="ccccccc"
           style="fill:#ffffff;stroke:#000000;stroke-linecap:round;stroke-linejoin:round"
           d="m 14.957,1.3562 8.261,2.4396 c 0.663,0.1249 1.096,0.759 0.971,1.4217 L 22.708,14.925 C 20.083,14.868 11.955,13.481 11.359,12.869 L 13.535,2.327 C 13.66,1.6644 14.294,1.2313 14.957,1.3562 Z" />
        <rect
           id="rect3165"
           style="fill:#333333;stroke:#000000;stroke-width:0.25;stroke-linecap:round;stroke-linejoin:round"
           transform="matrix(-0.98271,-0.18515,-0.18515,0.98271,0,0)"
           ry="0.78261"
           height="2.7304001"
           width="1.5652"
           y="5.8776002"
           x="-17.819" />
        <rect
           id="rect3167"
           style="fill:#333333;stroke:#000000;stroke-width:0.25;stroke-linecap:round;stroke-linejoin:round"
           transform="matrix(-0.98271,-0.18515,-0.18515,0.98271,0,0)"
           ry="0.78261"
           height="2.7304001"
           width="1.5652"
           y="5.8776002"
           x="-22.593" />
        <path
           id="rect2383"
           sodipodi:nodetypes="ccccccccc"
           style="fill:#ff7c05;stroke:#000000;stroke-width:0.25;stroke-linecap:round;stroke-linejoin:round"
           d="m 16.835,4.2455 3.823,0.6848 c 1.099,0.2072 1.635,1.101 1.428,2.2006 l -0.609,3.6071 c -0.207,1.1 -1.03,1.26 -2.13,1.052 L 15.821,11.126 C 14.722,10.919 14.124,10.544 14.331,9.4447 L 14.963,5.8066 C 15.17,4.707 15.735,4.0383 16.835,4.2455 Z" />
        <path
           id="rect3169"
           sodipodi:nodetypes="ccccc"
           style="fill:#ffffff;stroke:#000000;stroke-width:0.25;stroke-linecap:round;stroke-linejoin:round"
           d="m 16.521,4.9878 c 1.297,-0.4287 3.851,0.1565 4.443,0.8372 0.62,0.5977 1.123,3.1614 -0.04,3.408 -1.854,0.3301 -3.678,-0.4341 -5.237,-1.3229 -1.11,-0.6555 -0.1,-2.5606 0.834,-2.9223 z" />
        <ellipse
           id="path3172"
           style="fill:#ffffff;stroke:#000000;stroke-linecap:round;stroke-linejoin:round"
           transform="matrix(0.24568,0.046287,-0.046287,0.24568,15.598,3.5928)"
           cx="5.5999999"
           cy="22.608696"
           rx="2.2608695"
           ry="2.2956522" />
        <ellipse
           id="path3174"
           style="fill:#ffffff;stroke:#000000;stroke-linecap:round;stroke-linejoin:round"
           transform="matrix(0.24568,0.046287,-0.046287,0.24568,15,3.5688)"
           cx="22.504349"
           cy="23.443478"
           rx="2.4695652"
           ry="2.5739131" />
        <text
           xml:space="preserve"
           style="font-size:2.53794px;line-height:1.25;font-family:'Droid Sans';-inkscape-font-specification:'Droid Sans';fill:#0088aa;stroke-width:0.158621"
           x="17.76823"
           y="2.809067"
           id="text204"
           transform="rotate(15)"><tspan
             sodipodi:role="line"
             id="tspan202"
             x="17.76823"
             y="2.809067"
             style="font-style:normal;font-variant:normal;font-weight:normal;font-stretch:normal;font-family:Anaktoria;-inkscape-font-specification:Anaktoria;fill:#0088aa;stroke-width:0.158621">b14</tspan></text>
      </g>
    </g>
  </g>
  <metadata
     id="metadata16">
    <rdf:RDF>
      <cc:Work>
        <dc:format>image/svg+xml</dc:format>
        <dc:type
           rdf:resource="http://purl.org/dc/dcmitype/StillImage" />
        <cc:license
           rdf:resource="http://creativecommons.org/publicdomain/zero/1.0/" />
        <dc:publisher>
          <cc:Agent
             rdf:about="http://openclipart.org/">
            <dc:title>Openclipart</dc:title>
          </cc:Agent>
        </dc:publisher>
        <dc:title>Funny Bus stop</dc:title>
        <dc:date>2009-03-19T18:03:15</dc:date>
        <dc:description />
        <dc:source>https://openclipart.org/detail/22592/funny-bus-stop-by-milovanderlinden</dc:source>
        <dc:creator>
          <cc:Agent>
            <dc:title>milovanderlinden</dc:title>
          </cc:Agent>
        </dc:creator>
        <dc:subject>
          <rdf:Bag>
            <rdf:li>cartoon bus stop</rdf:li>
          </rdf:Bag>
        </dc:subject>
      </cc:Work>
      <cc:License
         rdf:about="http://creativecommons.org/publicdomain/zero/1.0/">
        <cc:permits
           rdf:resource="http://creativecommons.org/ns#Reproduction" />
        <cc:permits
           rdf:resource="http://creativecommons.org/ns#Distribution" />
        <cc:permits
           rdf:resource="http://creativecommons.org/ns#DerivativeWorks" />
      </cc:License>
    </rdf:RDF>
  </metadata>
</svg>
